<svg xmlns="http://www.w3.org/2000/svg" width="1024" height="1024" viewBox="0 0 1024 1024">
<g>
<path d="M 529.00 484.85 C506.41,488.10 489.00,485.78 470.33,477.03 C441.54,463.54 421.68,438.87 414.37,407.50 C411.73,396.18 411.97,374.53 414.85,363.76 C419.60,345.95 427.08,332.24 438.73,319.95 C453.59,304.29 469.24,295.36 490.60,290.35 C501.84,287.72 524.47,287.96 535.19,290.83 C565.38,298.91 587.93,316.96 600.99,343.50 C607.12,355.95 610.02,367.28 610.73,381.58 C612.40,415.12 598.11,446.41 571.94,466.55 C559.93,475.79 543.58,482.76 529.00,484.85 ZM 495.07 474.91 C497.51,475.39 505.18,475.83 512.12,475.89 C522.40,475.98 526.50,475.55 534.19,473.60 C567.07,465.26 592.22,438.91 599.10,405.60 C608.88,358.20 581.02,313.45 533.91,300.88 C521.91,297.68 502.04,297.66 490.00,300.83 C457.55,309.39 433.51,333.00 424.76,364.91 C423.08,371.00 422.68,375.37 422.69,387.00 C422.70,399.79 423.01,402.53 425.36,410.28 C431.86,431.82 444.22,448.94 461.90,460.93 C471.82,467.65 483.79,472.70 495.07,474.91 ZM 896.75 764.37 C893.51,765.24 885.23,764.95 880.00,763.79 C873.00,762.23 863.32,751.72 854.55,736.16 C847.78,724.14 847.53,723.84 844.68,724.41 C843.07,724.74 841.36,725.00 840.88,725.00 C840.39,725.00 840.00,731.42 840.00,739.28 C840.00,755.42 840.70,757.48 846.53,758.57 C849.34,759.10 850.00,759.68 850.00,761.61 L 850.00 764.00 L 812.00 764.00 L 812.00 761.66 C812.00,759.79 812.81,759.07 816.05,758.10 C818.92,757.24 820.38,756.12 821.10,754.23 C821.74,752.55 822.00,738.76 821.81,717.19 L 821.50 682.82 L 818.69 680.41 C817.15,679.09 815.01,678.00 813.94,678.00 C812.44,678.00 812.00,677.30 812.00,674.92 L 812.00 671.83 L 839.25 672.17 C866.20,672.50 866.56,672.53 872.00,675.10 C878.22,678.04 882.09,681.57 884.36,686.36 C890.18,698.60 885.18,712.36 872.64,718.66 C869.81,720.08 867.33,721.39 867.13,721.58 C866.58,722.07 871.48,730.28 878.20,740.15 C884.74,749.76 892.47,757.58 896.41,758.57 C899.81,759.42 900.04,763.49 896.75,764.37 ZM 329.44 761.50 C328.12,764.65 327.58,765.00 324.08,765.00 C320.61,765.00 320.07,764.66 319.01,761.75 C318.35,759.96 313.77,746.58 308.82,732.00 C292.99,685.35 291.02,680.97 284.84,678.63 C282.66,677.81 282.00,676.92 282.00,674.78 L 282.00 672.00 L 319.00 672.00 L 319.00 675.00 C319.00,677.46 318.59,678.00 316.70,678.00 C313.90,678.00 312.00,679.74 312.00,682.31 C312.00,683.35 315.43,695.75 319.62,709.86 C323.81,723.96 327.46,736.29 327.73,737.25 C328.02,738.23 328.22,739.00 328.54,739.05 C329.57,739.22 331.76,732.10 341.18,701.51 L 341.49 700.50 C345.04,688.95 348.44,677.55 349.04,675.17 C349.85,671.93 350.51,670.98 351.64,671.42 C352.48,671.74 354.65,672.00 356.47,672.00 C359.25,672.00 359.89,672.44 360.47,674.75 C361.43,678.60 373.18,710.92 379.24,726.37 C382.50,734.70 384.55,738.76 385.05,737.87 C386.42,735.42 399.10,693.65 400.11,688.27 C401.39,681.45 400.23,679.22 394.97,678.38 C391.41,677.81 391.00,677.45 391.00,674.87 L 391.00 672.00 L 421.00 672.00 L 421.00 674.52 C421.00,676.24 420.26,677.33 418.69,677.93 C412.94,680.11 410.59,684.81 402.09,711.12 C397.58,725.08 391.78,742.80 389.20,750.50 L 384.50 764.50 L 380.00 764.79 L 375.50 765.08 L 372.83 757.79 C370.23,750.69 352.70,704.47 351.11,700.52 C350.46,698.90 350.00,699.53 348.58,704.02 C343.64,719.63 330.71,758.45 329.44,761.50 ZM 645.00 761.55 L 645.00 764.00 L 607.00 764.00 L 607.00 761.52 C607.00,759.64 607.66,758.88 609.75,758.38 C611.28,758.02 612.43,757.83 613.31,757.22 C616.01,755.36 616.01,749.58 616.00,722.79 C616.00,721.51 616.00,720.18 616.00,718.80 L 616.00 682.91 L 613.55 680.45 C612.20,679.10 610.17,678.00 609.05,678.00 C607.44,678.00 607.00,677.36 607.00,675.00 L 607.00 672.00 L 644.00 672.00 L 644.00 674.82 C644.00,677.25 643.48,677.78 640.26,678.57 C634.50,680.00 633.90,682.21 634.22,701.10 L 634.50 717.33 L 649.75 700.55 C660.03,689.23 665.00,683.02 665.00,681.49 C665.00,679.16 663.31,678.00 659.92,678.00 C658.45,678.00 658.00,677.29 658.00,675.00 L 658.00 672.00 L 694.13 672.00 L 693.82 674.65 C693.56,676.77 692.70,677.53 689.50,678.48 C681.45,680.87 676.28,684.53 664.27,696.31 C657.52,702.92 652.00,708.70 652.00,709.14 C652.00,710.40 678.58,743.86 684.35,749.87 C687.18,752.82 691.41,756.10 693.75,757.16 C697.07,758.67 698.00,759.63 698.00,761.55 L 698.00 764.00 L 669.28 764.00 L 654.48 743.00 C646.33,731.45 639.37,722.00 639.01,722.00 C638.65,722.00 637.32,723.10 636.05,724.44 C633.86,726.78 633.78,727.43 634.16,739.78 C634.63,754.67 635.67,757.34 641.44,758.42 C644.37,758.97 645.00,759.52 645.00,761.55 ZM 576.00 631.50 L 576.00 634.00 L 543.00 634.00 L 543.00 631.50 C543.00,629.51 543.50,629.00 545.47,629.00 C549.33,629.00 554.38,623.78 557.27,616.79 C566.65,594.17 581.99,554.58 582.56,551.54 C583.19,548.15 583.03,547.84 580.12,546.74 C577.88,545.89 577.00,544.92 577.00,543.28 C577.00,541.04 577.20,541.00 588.40,541.00 L 599.79 541.00 L 604.30 552.25 C606.78,558.44 612.63,572.50 617.30,583.50 C621.97,594.50 627.20,607.13 628.90,611.58 C632.48,620.87 637.65,627.54 642.01,628.50 C644.33,629.01 645.00,629.71 645.00,631.58 L 645.00 634.00 L 606.00 634.00 L 606.00 631.71 C606.00,630.00 606.81,629.17 609.17,628.46 C614.57,626.82 614.64,625.46 609.94,613.71 L 605.66 603.00 L 588.58 603.00 L 571.50 603.01 L 568.75 612.25 C567.23,617.34 566.00,622.25 566.00,623.18 C566.00,625.42 570.69,629.00 573.63,629.00 C575.49,629.00 576.00,629.54 576.00,631.50 ZM 228.00 761.58 L 228.00 764.00 L 197.00 764.00 L 197.00 761.65 C197.00,759.84 197.91,758.95 200.96,757.75 C203.37,756.80 205.71,754.89 206.96,752.85 C209.02,749.49 228.82,700.29 233.12,687.86 C235.06,682.25 235.21,680.96 234.09,679.61 C233.35,678.72 231.91,678.00 230.88,678.00 C229.45,678.00 229.00,677.27 229.00,674.97 L 229.00 671.93 L 240.16 672.22 L 251.32 672.50 L 260.72 695.50 C265.89,708.15 273.05,725.70 276.64,734.50 C283.70,751.79 286.66,756.64 291.12,758.19 C293.22,758.92 294.00,759.85 294.00,761.60 L 294.00 764.00 L 256.87 764.00 L 257.18 761.37 C257.42,759.37 258.33,758.48 261.00,757.62 C265.76,756.09 265.82,754.07 261.44,743.11 L 257.77 733.95 L 223.58 734.50 L 221.34 741.50 C218.82,749.39 218.40,755.27 220.25,756.76 C220.94,757.32 222.96,758.08 224.75,758.46 C227.33,759.02 228.00,759.66 228.00,761.58 ZM 736.00 761.62 L 736.00 764.00 L 705.00 764.00 L 705.00 761.65 C705.00,759.85 705.91,758.95 708.91,757.77 C711.38,756.80 713.75,754.81 715.34,752.37 C718.04,748.23 740.07,693.51 742.11,685.88 C743.61,680.27 742.87,678.00 739.53,678.00 C737.39,678.00 737.00,677.54 737.00,675.00 L 737.00 672.00 L 748.25 672.02 L 759.50 672.04 L 767.18 691.27 C789.44,747.02 793.01,754.62 798.31,757.50 C800.87,758.89 802.00,760.19 802.00,761.75 L 802.00 764.00 L 765.00 764.00 L 765.00 761.53 C765.00,759.59 765.69,758.88 768.17,758.24 C773.31,756.90 773.83,754.97 771.15,747.25 C769.86,743.54 768.19,739.04 767.45,737.25 L 766.10 734.00 L 732.29 734.00 L 729.65 742.31 C728.19,746.88 727.00,751.57 727.00,752.74 C727.00,755.51 729.52,757.95 733.12,758.67 C735.32,759.11 736.00,759.81 736.00,761.62 ZM 444.00 761.62 L 444.00 764.00 L 413.00 764.00 L 413.00 761.66 C413.00,759.80 413.81,759.07 416.95,758.13 C419.30,757.43 421.76,755.75 423.02,753.98 C426.47,749.13 450.98,687.10 451.32,682.36 C451.49,679.86 450.41,678.73 446.75,677.60 C445.68,677.27 445.00,676.07 445.00,674.50 L 445.00 671.93 L 456.25 672.22 L 467.50 672.50 L 475.60 692.50 C499.44,751.33 500.99,754.61 506.31,757.50 C508.87,758.89 510.00,760.19 510.00,761.75 L 510.00 764.00 L 473.00 764.00 L 473.00 761.65 C473.00,759.84 473.91,758.94 477.00,757.73 C482.06,755.75 482.12,754.17 477.59,742.94 L 474.19 734.50 L 457.22 734.23 L 440.25 733.95 L 437.63 742.37 C433.68,755.03 434.12,757.27 440.85,758.62 C443.32,759.11 444.00,759.76 444.00,761.62 ZM 458.37 633.25 C458.06,634.34 457.04,634.91 455.68,634.76 C454.48,634.63 438.09,634.40 419.25,634.25 L 385.00 633.97 L 385.00 631.49 C385.00,629.53 385.51,629.00 387.39,629.00 C388.70,629.00 390.84,628.14 392.14,627.09 L 394.50 625.18 L 394.79 591.09 C395.12,551.40 394.89,549.65 388.97,547.87 C385.55,546.85 385.00,546.29 385.00,543.84 L 385.00 541.00 L 420.00 541.00 C439.25,541.00 455.05,541.11 455.12,541.25 C455.18,541.39 455.52,546.56 455.87,552.75 L 456.50 564.00 L 453.76 564.00 C451.55,564.00 450.73,563.29 449.48,560.29 C445.94,551.83 440.84,549.33 425.17,548.38 L 414.00 547.70 L 414.00 584.28 L 422.46 583.75 C433.10,583.09 436.90,581.11 438.98,575.16 C440.21,571.64 440.86,570.96 442.78,571.21 C445.07,571.50 445.08,571.62 445.29,587.29 L 445.50 603.09 L 443.06 602.79 C441.28,602.58 440.40,601.67 439.83,599.44 C439.40,597.76 437.87,595.29 436.44,593.94 C434.11,591.75 432.82,591.46 423.92,591.16 L 414.00 590.81 L 414.00 627.75 L 418.25 627.41 C420.59,627.22 426.83,626.86 432.12,626.62 C446.14,625.97 450.89,623.00 455.71,611.87 C456.61,609.79 457.36,609.35 459.38,609.73 C461.47,610.13 461.83,610.67 461.47,612.86 C461.23,614.31 460.55,619.10 459.96,623.50 C459.36,627.90 458.65,632.29 458.37,633.25 ZM 533.00 440.61 L 533.00 443.00 L 488.87 443.00 L 489.18 440.26 C489.45,437.94 490.09,437.43 493.32,436.91 C495.12,436.62 496.48,436.52 497.49,435.89 C500.69,433.89 500.54,426.54 500.79,390.82 L 501.08 348.71 L 490.23 349.23 C473.53,350.02 468.27,353.23 465.62,364.25 C465.08,366.51 464.42,367.00 461.87,367.00 C459.47,367.00 458.92,366.65 459.39,365.42 C459.73,364.55 460.00,358.70 460.00,352.42 L 460.00 341.00 L 562.00 341.00 L 562.19 351.00 C562.29,356.50 562.40,362.24 562.44,363.75 C562.49,365.99 562.02,366.56 559.87,366.80 C557.60,367.07 557.16,366.66 556.62,363.80 C554.73,353.81 548.27,350.01 531.81,349.23 L 521.00 348.72 L 521.00 432.09 L 523.45 434.55 C524.80,435.90 526.79,437.00 527.87,437.00 C531.35,437.00 533.00,438.16 533.00,440.61 ZM 705.18 633.25 C699.26,635.87 684.21,636.54 675.50,634.57 C672.20,633.83 666.97,632.64 663.87,631.93 L 658.24 630.64 L 657.63 625.57 C657.29,622.78 657.01,617.01 657.01,612.75 C657.00,605.19 657.06,605.00 659.45,605.00 C661.41,605.00 662.32,605.94 663.93,609.58 C671.75,627.26 691.09,634.28 702.68,623.66 C705.45,621.12 706.29,619.48 706.65,615.97 C707.60,606.72 702.09,601.47 683.66,594.06 C663.99,586.16 657.00,578.69 657.00,565.58 C657.00,556.49 660.38,550.25 668.08,545.10 C678.41,538.21 691.02,537.34 709.00,542.29 L 717.50 544.64 L 717.78 555.82 L 718.07 567.00 L 715.19 567.00 C712.73,567.00 712.15,566.45 711.18,563.20 C709.69,558.23 703.83,551.48 698.64,548.75 C692.78,545.67 682.85,545.66 677.92,548.73 C673.81,551.28 672.00,554.60 672.00,559.60 C672.00,567.38 677.47,572.34 692.45,578.11 C708.52,584.31 716.24,589.63 720.07,597.14 C722.48,601.85 722.64,611.76 720.43,618.26 C718.55,623.78 711.97,630.24 705.18,633.25 ZM 348.00 631.75 L 348.00 634.50 L 308.00 634.50 L 308.00 631.75 C308.00,629.42 308.42,629.00 310.75,628.98 C314.56,628.96 315.88,627.90 317.02,623.94 C317.58,621.98 318.00,605.11 318.00,584.61 L 318.00 548.71 L 310.59 549.27 C299.69,550.10 294.19,553.72 291.86,561.61 C290.73,565.43 290.20,566.00 287.78,566.00 L 285.00 566.00 L 285.00 540.98 L 369.50 541.50 L 370.06 565.00 L 367.66 565.00 C365.73,565.00 364.68,563.86 362.37,559.25 C358.79,552.09 354.82,549.88 344.29,549.20 L 336.91 548.73 L 337.20 586.95 L 337.50 625.18 L 339.86 627.09 C341.16,628.14 343.52,629.00 345.11,629.00 C347.60,629.00 348.00,629.38 348.00,631.75 ZM 593.36 759.75 L 592.77 764.00 L 522.00 764.00 L 522.00 761.58 C522.00,759.70 522.67,759.01 525.00,758.50 C530.98,757.19 531.00,757.03 531.00,718.23 L 531.00 682.91 L 528.55 680.45 C527.20,679.10 525.17,678.00 524.05,678.00 C522.44,678.00 522.00,677.36 522.00,675.00 L 522.00 672.00 L 559.00 672.00 L 559.00 675.00 C559.00,677.50 558.60,678.00 556.61,678.00 C555.30,678.00 553.16,678.86 551.86,679.91 L 549.50 681.82 L 549.20 719.41 L 548.91 757.00 L 558.91 757.00 C564.40,757.00 571.23,756.50 574.07,755.89 C580.79,754.45 586.39,749.48 588.74,742.88 C590.25,738.62 590.82,738.00 593.25,738.00 C595.61,738.00 595.97,738.35 595.58,740.25 C595.32,741.49 594.85,745.42 594.53,749.00 C594.21,752.58 593.68,757.41 593.36,759.75 ZM 168.40 763.15 C162.78,765.63 152.79,766.35 146.94,764.70 C136.84,761.84 132.00,756.51 132.00,748.27 C132.00,742.97 134.61,740.00 139.28,740.00 C145.09,740.00 147.31,742.68 149.44,752.28 C151.00,759.34 157.23,760.97 162.50,755.70 C167.79,750.41 168.09,747.84 167.35,714.18 C166.60,680.31 166.51,679.88 159.52,678.57 C156.44,677.99 156.00,677.54 156.00,674.95 L 156.00 672.00 L 194.00 672.00 L 194.00 674.49 C194.00,676.38 193.17,677.32 190.49,678.44 C188.42,679.30 186.58,680.97 185.99,682.52 C185.42,684.04 185.00,697.72 185.00,715.25 C185.00,743.61 184.88,745.62 182.94,749.62 C180.43,754.81 174.24,760.56 168.40,763.15 ZM 512.50 632.75 C508.70,634.71 505.70,635.40 500.00,635.62 C483.37,636.27 475.00,630.77 475.00,619.19 C475.00,613.55 477.19,610.99 481.97,611.01 C487.05,611.04 489.34,613.21 492.00,620.49 C495.05,628.87 497.88,631.14 502.47,628.90 C506.63,626.86 508.93,623.18 509.92,616.98 C510.40,613.97 510.55,598.67 510.26,583.00 C509.69,551.96 509.26,549.53 504.23,548.43 C499.33,547.36 499.00,547.10 499.00,544.28 L 499.00 541.50 L 517.25 541.65 C527.29,541.73 535.61,542.07 535.75,542.40 C536.69,544.66 535.63,546.70 533.01,547.69 C531.30,548.33 529.59,549.96 529.01,551.47 C528.41,553.05 528.00,566.51 528.00,584.60 C528.00,618.60 527.86,619.43 521.20,626.34 C519.17,628.45 515.25,631.33 512.50,632.75 ZM 840.50 679.50 L 839.96 718.00 L 845.83 718.00 C859.92,718.00 867.92,710.94 867.98,698.46 C868.03,686.76 860.55,679.96 847.27,679.66 ZM 575.00 594.44 C575.00,594.75 581.11,595.00 588.58,595.00 C596.05,595.00 602.02,594.62 601.83,594.15 C592.99,571.73 588.46,561.16 587.93,561.75 C587.24,562.53 575.00,593.48 575.00,594.44 ZM 738.97 716.25 L 735.15 726.00 L 748.58 726.00 C755.96,726.00 762.00,725.78 762.00,725.51 C762.00,725.24 759.56,718.82 756.57,711.26 C753.58,703.69 750.62,696.15 749.98,694.50 L 748.82 691.50 L 745.80 699.00 C744.14,703.12 741.07,710.89 738.97,716.25 ZM 229.39 719.75 L 227.02 726.00 L 240.62 726.00 C251.09,726.00 254.10,725.71 253.72,724.75 C247.73,709.67 240.76,692.44 240.55,692.23 C240.30,691.97 234.63,705.95 229.39,719.75 ZM 449.81 709.50 L 443.28 726.00 L 456.64 726.00 C463.99,726.00 470.00,725.70 470.00,725.34 C470.00,723.87 457.58,693.00 456.99,693.00 C456.63,693.00 453.41,700.42 449.81,709.50 Z" fill="rgb(32,44,53)"/>
<path d="M 0.00 512.00 L 0.00 0.00 L 512.00 0.00 L 1024.00 0.00 L 1024.00 512.00 L 1024.00 1024.00 L 512.00 1024.00 L 0.00 1024.00 L 0.00 512.00 ZM 168.40 763.15 C174.24,760.56 180.43,754.81 182.94,749.62 C184.88,745.62 185.00,743.61 185.00,715.25 C185.00,697.72 185.42,684.04 185.99,682.52 C186.58,680.97 188.42,679.30 190.49,678.44 C193.17,677.32 194.00,676.38 194.00,674.49 L 194.00 672.00 L 175.00 672.00 L 156.00 672.00 L 156.00 674.95 C156.00,677.54 156.44,677.99 159.52,678.57 C166.51,679.88 166.60,680.31 167.35,714.18 C168.09,747.84 167.79,750.41 162.50,755.70 C157.23,760.97 151.00,759.34 149.44,752.28 C147.31,742.68 145.09,740.00 139.28,740.00 C134.61,740.00 132.00,742.97 132.00,748.27 C132.00,756.51 136.84,761.84 146.94,764.70 C152.79,766.35 162.78,765.63 168.40,763.15 ZM 329.44 761.50 C330.71,758.45 343.64,719.63 348.58,704.02 C350.00,699.53 350.46,698.90 351.11,700.52 C352.70,704.47 370.23,750.69 372.83,757.79 L 375.50 765.08 L 380.00 764.79 L 384.50 764.50 L 389.20 750.50 C391.78,742.80 397.58,725.08 402.09,711.12 C410.59,684.81 412.94,680.11 418.69,677.93 C420.26,677.33 421.00,676.24 421.00,674.52 L 421.00 672.00 L 406.00 672.00 L 391.00 672.00 L 391.00 674.87 C391.00,677.45 391.41,677.81 394.97,678.38 C400.23,679.22 401.39,681.45 400.11,688.27 C399.10,693.65 386.42,735.42 385.05,737.87 C384.55,738.76 382.50,734.70 379.24,726.37 C373.18,710.92 361.43,678.60 360.47,674.75 C359.89,672.44 359.25,672.00 356.47,672.00 C354.65,672.00 352.48,671.74 351.64,671.42 C350.51,670.98 349.85,671.93 349.04,675.17 C348.44,677.55 345.04,688.95 341.49,700.50 C328.80,741.71 328.92,741.40 327.73,737.25 C327.46,736.29 323.81,723.96 319.62,709.86 C315.43,695.75 312.00,683.35 312.00,682.31 C312.00,679.74 313.90,678.00 316.70,678.00 C318.59,678.00 319.00,677.46 319.00,675.00 L 319.00 672.00 L 300.50 672.00 L 282.00 672.00 L 282.00 674.78 C282.00,676.92 282.66,677.81 284.84,678.63 C291.02,680.97 292.99,685.35 308.82,732.00 C313.77,746.58 318.35,759.96 319.01,761.75 C320.07,764.66 320.61,765.00 324.08,765.00 C327.58,765.00 328.12,764.65 329.44,761.50 ZM 896.75 764.37 C900.04,763.49 899.81,759.42 896.41,758.57 C892.47,757.58 884.74,749.76 878.20,740.15 C871.48,730.28 866.58,722.07 867.13,721.58 C867.33,721.39 869.81,720.08 872.64,718.66 C885.18,712.36 890.18,698.60 884.36,686.36 C882.09,681.57 878.22,678.04 872.00,675.10 C866.56,672.53 866.20,672.50 839.25,672.17 L 812.00 671.83 L 812.00 674.92 C812.00,677.30 812.44,678.00 813.94,678.00 C815.01,678.00 817.15,679.09 818.69,680.41 L 821.50 682.82 L 821.81 717.19 C822.00,738.76 821.74,752.55 821.10,754.23 C820.38,756.12 818.92,757.24 816.05,758.10 C812.81,759.07 812.00,759.79 812.00,761.66 L 812.00 764.00 L 831.00 764.00 L 850.00 764.00 L 850.00 761.61 C850.00,759.68 849.34,759.10 846.53,758.57 C840.70,757.48 840.00,755.42 840.00,739.28 C840.00,731.42 840.39,725.00 840.88,725.00 C841.36,725.00 843.07,724.74 844.68,724.41 C847.53,723.84 847.78,724.14 854.55,736.16 C863.32,751.72 873.00,762.23 880.00,763.79 C885.23,764.95 893.51,765.24 896.75,764.37 ZM 228.00 761.58 C228.00,759.66 227.33,759.02 224.75,758.46 C222.96,758.08 220.94,757.32 220.25,756.76 C218.40,755.27 218.82,749.39 221.34,741.50 L 223.58 734.50 L 240.68 734.23 L 257.77 733.95 L 261.44 743.11 C265.82,754.07 265.76,756.09 261.00,757.62 C258.33,758.48 257.42,759.37 257.18,761.37 L 256.87 764.00 L 275.43 764.00 L 294.00 764.00 L 294.00 761.60 C294.00,759.85 293.22,758.92 291.12,758.19 C286.66,756.64 283.70,751.79 276.64,734.50 C273.05,725.70 265.89,708.15 260.72,695.50 L 251.32 672.50 L 240.16 672.22 L 229.00 671.93 L 229.00 674.97 C229.00,677.27 229.45,678.00 230.88,678.00 C231.91,678.00 233.35,678.72 234.09,679.61 C235.21,680.96 235.06,682.25 233.12,687.86 C228.82,700.29 209.02,749.49 206.96,752.85 C205.71,754.89 203.37,756.80 200.96,757.75 C197.91,758.95 197.00,759.84 197.00,761.65 L 197.00 764.00 L 212.50 764.00 L 228.00 764.00 L 228.00 761.58 ZM 444.00 761.62 C444.00,759.76 443.32,759.11 440.85,758.62 C434.12,757.27 433.68,755.03 437.63,742.37 L 440.25 733.95 L 457.22 734.23 L 474.19 734.50 L 477.59 742.94 C482.12,754.17 482.06,755.75 477.00,757.73 C473.91,758.94 473.00,759.84 473.00,761.65 L 473.00 764.00 L 491.50 764.00 L 510.00 764.00 L 510.00 761.75 C510.00,760.19 508.87,758.89 506.31,757.50 C500.99,754.61 499.44,751.33 475.60,692.50 L 467.50 672.50 L 456.25 672.22 L 445.00 671.93 L 445.00 674.50 C445.00,676.07 445.68,677.27 446.75,677.60 C450.41,678.73 451.49,679.86 451.32,682.36 C450.98,687.10 426.47,749.13 423.02,753.98 C421.76,755.75 419.30,757.43 416.95,758.13 C413.81,759.07 413.00,759.80 413.00,761.66 L 413.00 764.00 L 428.50 764.00 L 444.00 764.00 L 444.00 761.62 ZM 593.36 759.75 C593.68,757.41 594.21,752.58 594.53,749.00 C594.85,745.42 595.32,741.49 595.58,740.25 C595.97,738.35 595.61,738.00 593.25,738.00 C590.82,738.00 590.25,738.62 588.74,742.88 C586.39,749.48 580.79,754.45 574.07,755.89 C571.23,756.50 564.40,757.00 558.91,757.00 L 548.91 757.00 L 549.20 719.41 L 549.50 681.82 L 551.86 679.91 C553.16,678.86 555.30,678.00 556.61,678.00 C558.60,678.00 559.00,677.50 559.00,675.00 L 559.00 672.00 L 540.50 672.00 L 522.00 672.00 L 522.00 675.00 C522.00,677.36 522.44,678.00 524.05,678.00 C525.17,678.00 527.20,679.10 528.55,680.45 L 531.00 682.91 L 531.00 718.23 C531.00,757.03 530.98,757.19 525.00,758.50 C522.67,759.01 522.00,759.70 522.00,761.58 L 522.00 764.00 L 557.39 764.00 L 592.77 764.00 L 593.36 759.75 ZM 645.00 761.55 C645.00,759.52 644.37,758.97 641.44,758.42 C635.67,757.34 634.63,754.67 634.16,739.78 C633.78,727.43 633.86,726.78 636.05,724.44 C637.32,723.10 638.65,722.00 639.01,722.00 C639.37,722.00 646.33,731.45 654.48,743.00 L 669.28 764.00 L 683.64 764.00 L 698.00 764.00 L 698.00 761.55 C698.00,759.63 697.07,758.67 693.75,757.16 C691.41,756.10 687.18,752.82 684.35,749.87 C678.58,743.86 652.00,710.40 652.00,709.14 C652.00,708.70 657.52,702.92 664.27,696.31 C676.28,684.53 681.45,680.87 689.50,678.48 C692.70,677.53 693.56,676.77 693.82,674.65 L 694.13 672.00 L 676.07 672.00 L 658.00 672.00 L 658.00 675.00 C658.00,677.29 658.45,678.00 659.92,678.00 C663.31,678.00 665.00,679.16 665.00,681.49 C665.00,683.02 660.03,689.23 649.75,700.55 L 634.50 717.33 L 634.22 701.10 C633.90,682.21 634.50,680.00 640.26,678.57 C643.48,677.78 644.00,677.25 644.00,674.82 L 644.00 672.00 L 625.50 672.00 L 607.00 672.00 L 607.00 675.00 C607.00,677.36 607.44,678.00 609.05,678.00 C610.17,678.00 612.20,679.10 613.55,680.45 L 616.00 682.91 L 616.00 718.80 C616.00,758.33 616.23,756.84 609.75,758.38 C607.66,758.88 607.00,759.64 607.00,761.52 L 607.00 764.00 L 626.00 764.00 L 645.00 764.00 L 645.00 761.55 ZM 736.00 761.62 C736.00,759.81 735.32,759.11 733.12,758.67 C729.52,757.95 727.00,755.51 727.00,752.74 C727.00,751.57 728.19,746.88 729.65,742.31 L 732.29 734.00 L 749.20 734.00 L 766.10 734.00 L 767.45 737.25 C768.19,739.04 769.86,743.54 771.15,747.25 C773.83,754.97 773.31,756.90 768.17,758.24 C765.69,758.88 765.00,759.59 765.00,761.53 L 765.00 764.00 L 783.50 764.00 L 802.00 764.00 L 802.00 761.75 C802.00,760.19 800.87,758.89 798.31,757.50 C793.01,754.62 789.44,747.02 767.18,691.27 L 759.50 672.04 L 748.25 672.02 L 737.00 672.00 L 737.00 675.00 C737.00,677.54 737.39,678.00 739.53,678.00 C742.87,678.00 743.61,680.27 742.11,685.88 C740.07,693.51 718.04,748.23 715.34,752.37 C713.75,754.81 711.38,756.80 708.91,757.77 C705.91,758.95 705.00,759.85 705.00,761.65 L 705.00 764.00 L 720.50 764.00 L 736.00 764.00 L 736.00 761.62 ZM 512.50 632.75 C515.25,631.33 519.17,628.45 521.20,626.34 C527.86,619.43 528.00,618.60 528.00,584.60 C528.00,566.51 528.41,553.05 529.01,551.47 C529.59,549.96 531.30,548.33 533.01,547.69 C535.63,546.70 536.69,544.66 535.75,542.40 C535.61,542.07 527.29,541.73 517.25,541.65 L 499.00 541.50 L 499.00 544.28 C499.00,547.10 499.33,547.36 504.23,548.43 C509.26,549.53 509.69,551.96 510.26,583.00 C510.55,598.67 510.40,613.97 509.92,616.98 C508.93,623.18 506.63,626.86 502.47,628.90 C497.88,631.14 495.05,628.87 492.00,620.49 C489.34,613.21 487.05,611.04 481.97,611.01 C477.19,610.99 475.00,613.55 475.00,619.19 C475.00,630.77 483.37,636.27 500.00,635.62 C505.70,635.40 508.70,634.71 512.50,632.75 ZM 705.18 633.25 C711.97,630.24 718.55,623.78 720.43,618.26 C722.64,611.76 722.48,601.85 720.07,597.14 C716.24,589.63 708.52,584.31 692.45,578.11 C677.47,572.34 672.00,567.38 672.00,559.60 C672.00,554.60 673.81,551.28 677.92,548.73 C682.85,545.66 692.78,545.67 698.64,548.75 C703.83,551.48 709.69,558.23 711.18,563.20 C712.15,566.45 712.73,567.00 715.19,567.00 L 718.07 567.00 L 717.78 555.82 L 717.50 544.64 L 709.00 542.29 C691.02,537.34 678.41,538.21 668.08,545.10 C660.38,550.25 657.00,556.49 657.00,565.58 C657.00,578.69 663.99,586.16 683.66,594.06 C702.09,601.47 707.60,606.72 706.65,615.97 C706.29,619.48 705.45,621.12 702.68,623.66 C691.09,634.28 671.75,627.26 663.93,609.58 C662.32,605.94 661.41,605.00 659.45,605.00 C657.06,605.00 657.00,605.19 657.01,612.75 C657.01,617.01 657.29,622.78 657.63,625.57 L 658.24 630.64 L 663.87 631.93 C666.97,632.64 672.20,633.83 675.50,634.57 C684.21,636.54 699.26,635.87 705.18,633.25 ZM 348.00 631.75 C348.00,629.38 347.60,629.00 345.11,629.00 C343.52,629.00 341.16,628.14 339.86,627.09 L 337.50 625.18 L 337.20 586.95 L 336.91 548.73 L 344.29 549.20 C354.82,549.88 358.79,552.09 362.37,559.25 C364.68,563.86 365.73,565.00 367.66,565.00 L 370.06 565.00 L 369.78 553.25 L 369.50 541.50 L 327.25 541.24 L 285.00 540.98 L 285.00 553.49 L 285.00 566.00 L 287.78 566.00 C290.20,566.00 290.73,565.43 291.86,561.61 C294.19,553.72 299.69,550.10 310.59,549.27 L 318.00 548.71 L 318.00 584.61 C318.00,605.11 317.58,621.98 317.02,623.94 C315.88,627.90 314.56,628.96 310.75,628.98 C308.42,629.00 308.00,629.42 308.00,631.75 L 308.00 634.50 L 328.00 634.50 L 348.00 634.50 L 348.00 631.75 ZM 458.37 633.25 C458.65,632.29 459.36,627.90 459.96,623.50 C460.55,619.10 461.23,614.31 461.47,612.86 C461.83,610.67 461.47,610.13 459.38,609.73 C457.36,609.35 456.61,609.79 455.71,611.87 C450.89,623.00 446.14,625.97 432.12,626.62 C426.83,626.86 420.59,627.22 418.25,627.41 L 414.00 627.75 L 414.00 609.28 L 414.00 590.81 L 423.92 591.16 C432.82,591.46 434.11,591.75 436.44,593.94 C437.87,595.29 439.40,597.76 439.83,599.44 C440.40,601.67 441.28,602.58 443.06,602.79 L 445.50 603.09 L 445.29 587.29 C445.08,571.62 445.07,571.50 442.78,571.21 C440.86,570.96 440.21,571.64 438.98,575.16 C436.90,581.11 433.10,583.09 422.46,583.75 L 414.00 584.28 L 414.00 565.99 L 414.00 547.70 L 425.17 548.38 C440.84,549.33 445.94,551.83 449.48,560.29 C450.73,563.29 451.55,564.00 453.76,564.00 L 456.50 564.00 L 455.87 552.75 C455.52,546.56 455.18,541.39 455.12,541.25 C455.05,541.11 439.25,541.00 420.00,541.00 L 385.00 541.00 L 385.00 543.84 C385.00,546.29 385.55,546.85 388.97,547.87 C394.89,549.65 395.12,551.40 394.79,591.09 L 394.50 625.18 L 392.14 627.09 C390.84,628.14 388.70,629.00 387.39,629.00 C385.51,629.00 385.00,629.53 385.00,631.49 L 385.00 633.97 L 419.25 634.25 C438.09,634.40 454.48,634.63 455.68,634.76 C457.04,634.91 458.06,634.34 458.37,633.25 ZM 576.00 631.50 C576.00,629.54 575.49,629.00 573.63,629.00 C570.69,629.00 566.00,625.42 566.00,623.18 C566.00,622.25 567.23,617.34 568.75,612.25 L 571.50 603.01 L 588.58 603.00 L 605.66 603.00 L 609.94 613.71 C614.64,625.46 614.57,626.82 609.17,628.46 C606.81,629.17 606.00,630.00 606.00,631.71 L 606.00 634.00 L 625.50 634.00 L 645.00 634.00 L 645.00 631.58 C645.00,629.71 644.33,629.01 642.01,628.50 C637.65,627.54 632.48,620.87 628.90,611.58 C627.20,607.13 621.97,594.50 617.30,583.50 C612.63,572.50 606.78,558.44 604.30,552.25 L 599.79 541.00 L 588.40 541.00 C577.20,541.00 577.00,541.04 577.00,543.28 C577.00,544.92 577.88,545.89 580.12,546.74 C583.03,547.84 583.19,548.15 582.56,551.54 C581.99,554.58 566.65,594.17 557.27,616.79 C554.38,623.78 549.33,629.00 545.47,629.00 C543.50,629.00 543.00,629.51 543.00,631.50 L 543.00 634.00 L 559.50 634.00 L 576.00 634.00 L 576.00 631.50 ZM 529.00 484.85 C543.58,482.76 559.93,475.79 571.94,466.55 C598.11,446.41 612.40,415.12 610.73,381.58 C610.02,367.28 607.12,355.95 600.99,343.50 C587.93,316.96 565.38,298.91 535.19,290.83 C524.47,287.96 501.84,287.72 490.60,290.35 C469.24,295.36 453.59,304.29 438.73,319.95 C427.08,332.24 419.60,345.95 414.85,363.76 C411.97,374.53 411.73,396.18 414.37,407.50 C421.68,438.87 441.54,463.54 470.33,477.03 C489.00,485.78 506.41,488.10 529.00,484.85 ZM 840.23 698.75 L 840.50 679.50 L 847.27 679.66 C860.55,679.96 868.03,686.76 867.98,698.46 C867.92,710.94 859.92,718.00 845.83,718.00 L 839.96 718.00 L 840.23 698.75 ZM 229.39 719.75 C234.63,705.95 240.30,691.97 240.55,692.23 C240.76,692.44 247.73,709.67 253.72,724.75 C254.10,725.71 251.09,726.00 240.62,726.00 L 227.02 726.00 L 229.39 719.75 ZM 449.81 709.50 C453.41,700.42 456.63,693.00 456.99,693.00 C457.58,693.00 470.00,723.87 470.00,725.34 C470.00,725.70 463.99,726.00 456.64,726.00 L 443.28 726.00 L 449.81 709.50 ZM 738.97 716.25 C741.07,710.89 744.14,703.12 745.80,699.00 L 748.82 691.50 L 749.98 694.50 C750.62,696.15 753.58,703.69 756.57,711.26 C759.56,718.82 762.00,725.24 762.00,725.51 C762.00,725.78 755.96,726.00 748.58,726.00 L 735.15 726.00 L 738.97 716.25 ZM 575.00 594.44 C575.00,593.48 587.24,562.53 587.93,561.75 C588.46,561.16 592.99,571.73 601.83,594.15 C602.02,594.62 596.05,595.00 588.58,595.00 C581.11,595.00 575.00,594.75 575.00,594.44 ZM 495.07 474.91 C483.79,472.70 471.82,467.65 461.90,460.93 C444.22,448.94 431.86,431.82 425.36,410.28 C423.01,402.53 422.70,399.79 422.69,387.00 C422.68,375.37 423.08,371.00 424.76,364.91 C433.51,333.00 457.55,309.39 490.00,300.83 C502.04,297.66 521.91,297.68 533.91,300.88 C581.02,313.45 608.88,358.20 599.10,405.60 C592.22,438.91 567.07,465.26 534.19,473.60 C526.50,475.55 522.40,475.98 512.12,475.89 C505.18,475.83 497.51,475.39 495.07,474.91 ZM 533.00 440.61 C533.00,438.16 531.35,437.00 527.87,437.00 C526.79,437.00 524.80,435.90 523.45,434.55 L 521.00 432.09 L 521.00 390.40 L 521.00 348.72 L 531.81 349.23 C548.27,350.01 554.73,353.81 556.62,363.80 C557.16,366.66 557.60,367.07 559.87,366.80 C562.02,366.56 562.49,365.99 562.44,363.75 C562.40,362.24 562.29,356.50 562.19,351.00 L 562.00 341.00 L 511.00 341.00 L 460.00 341.00 L 460.00 352.42 C460.00,358.70 459.73,364.55 459.39,365.42 C458.92,366.65 459.47,367.00 461.87,367.00 C464.42,367.00 465.08,366.51 465.62,364.25 C468.27,353.23 473.53,350.02 490.23,349.23 L 501.08 348.71 L 500.79 390.82 C500.47,437.88 500.82,435.70 493.32,436.91 C490.09,437.43 489.45,437.94 489.18,440.26 L 488.87 443.00 L 510.93 443.00 L 533.00 443.00 L 533.00 440.61 Z" fill="rgb(238,231,221)"/>
</g>
</svg>